<svg xmlns="http://www.w3.org/2000/svg" width="78" height="75" fill="none">
  <path fill="url(#a)" stroke="url(#b)"
    d="M32.269 2.943c2.364 1.232 4.293 2.87 5.794 4.921a19.929 19.929 0 0 0-1.013 1.587l-.004.007c-1.783 3.223-2.663 7.077-2.663 11.542v33c0 4.4.88 8.252 2.66 11.538l.007.011c.316.551.654 1.08 1.013 1.587-1.5 2.05-3.43 3.69-5.794 4.92l-.004.003C29.22 73.679 25.537 74.5 21.2 74.5c-4.336 0-8.053-.82-11.167-2.442-3.044-1.62-5.406-3.948-7.092-6.995C1.32 61.95.5 58.267.5 54V21c0-4.336.82-8.017 2.44-11.062 1.686-3.047 4.048-5.375 7.093-6.996C13.147 1.321 16.863.5 21.2.5s8.02.821 11.065 2.441l.004.002Zm6.398 5.805c.244.383.474.778.692 1.187l.003.007C41.047 12.987 41.9 16.634 41.9 20.9V54c0 4.266-.853 7.948-2.54 11.062l-.001.003c-.218.409-.448.804-.692 1.187-.262-.385-.51-.784-.747-1.195-1.685-3.114-2.537-6.794-2.537-11.057V21c0-4.333.853-8.011 2.536-11.054.237-.413.486-.812.748-1.198Zm.627-.869c1.579-2.057 3.55-3.701 5.918-4.935C48.395 1.321 52.147.5 56.483.5c4.334 0 8.049.853 11.162 2.54l.007.003c3.114 1.622 5.508 3.952 7.194 6.999 1.618 2.926 2.469 6.406 2.533 10.458h-8.001c-.086-3.98-1.21-7.12-3.436-9.348-2.251-2.389-5.43-3.552-9.459-3.552-4.03 0-7.267 1.13-9.648 3.441l-.005.005c-2.322 2.322-3.447 5.633-3.447 9.854V54c0 4.222 1.125 7.562 3.441 9.948l.006.006.005.005c2.381 2.311 5.618 3.441 9.648 3.441 4.028 0 7.207-1.13 9.46-3.452 2.223-2.291 3.349-5.462 3.435-9.448h8.001c-.065 3.987-.915 7.47-2.535 10.46-1.685 3.046-4.08 5.41-7.195 7.098-3.114 1.621-6.83 2.442-11.166 2.442s-8.087-.82-11.27-2.444c-2.368-1.234-4.34-2.878-5.92-4.935.34-.506.655-1.034.947-1.584C42.02 62.25 42.9 58.4 42.9 54V20.9c0-4.399-.88-8.218-2.66-11.438a18.335 18.335 0 0 0-.946-1.583ZM11.836 63.943l.005.005c2.25 2.321 5.394 3.452 9.359 3.452 4.027 0 7.177-1.129 9.364-3.458C32.81 61.556 33.9 58.218 33.9 54V21c0-4.213-1.088-7.52-3.336-9.842C28.378 8.763 25.23 7.6 21.2 7.6c-3.967 0-7.112 1.166-9.362 3.555C9.588 13.477 8.5 16.785 8.5 21v33c0 4.218 1.09 7.556 3.336 9.943Z" />
  <defs>
    <linearGradient id="a" x1="38.942" x2="38.942" y1="0" y2="75" gradientUnits="userSpaceOnUse">
      <stop stop-color="#D33075" />
      <stop offset="1" stop-color="#6157D8" />
    </linearGradient>
    <linearGradient id="b" x1="38.942" x2="38.942" y1="0" y2="75" gradientUnits="userSpaceOnUse">
      <stop stop-color="#D33075" />
      <stop offset="1" stop-color="#6157D8" />
    </linearGradient>
  </defs>
</svg>
