<svg xmlns="http://www.w3.org/2000/svg" width="78" height="75" fill="none">
  <path fill="#000"
    d="M21.2 75c-4.4 0-8.2-.833-11.4-2.5-3.133-1.667-5.567-4.067-7.3-7.2C.833 62.1 0 58.333 0 54V21c0-4.4.833-8.167 2.5-11.3 1.733-3.133 4.167-5.533 7.3-7.2C13 .833 16.8 0 21.2 0s8.167.833 11.3 2.5c3.2 1.667 5.633 4.067 7.3 7.2 1.733 3.133 2.6 6.867 2.6 11.2V54c0 4.333-.867 8.1-2.6 11.3-1.667 3.133-4.1 5.533-7.3 7.2-3.133 1.667-6.9 2.5-11.3 2.5Zm0-8.1c3.933 0 6.933-1.1 9-3.3 2.133-2.267 3.2-5.467 3.2-9.6V21c0-4.133-1.067-7.3-3.2-9.5-2.067-2.267-5.067-3.4-9-3.4-3.867 0-6.867 1.133-9 3.4C10.067 13.7 9 16.867 9 21v33c0 4.133 1.067 7.333 3.2 9.6 2.133 2.2 5.133 3.3 9 3.3Z" />
  <path fill="#000"
    d="M56.483 75c-4.4 0-8.233-.833-11.5-2.5-3.2-1.667-5.7-4.067-7.5-7.2-1.733-3.2-2.6-6.967-2.6-11.3V21c0-4.4.867-8.167 2.6-11.3 1.8-3.133 4.3-5.533 7.5-7.2C48.25.833 52.083 0 56.483 0s8.2.867 11.4 2.6c3.2 1.667 5.667 4.067 7.4 7.2 1.733 3.133 2.6 6.867 2.6 11.2h-9c0-4.133-1.1-7.3-3.3-9.5-2.133-2.267-5.166-3.4-9.1-3.4-3.933 0-7.033 1.1-9.3 3.3-2.2 2.2-3.3 5.367-3.3 9.5V54c0 4.133 1.1 7.333 3.3 9.6 2.267 2.2 5.367 3.3 9.3 3.3 3.934 0 6.967-1.1 9.1-3.3 2.2-2.267 3.3-5.467 3.3-9.6h9c0 4.267-.867 8-2.6 11.2-1.733 3.133-4.2 5.567-7.4 7.3-3.2 1.667-7 2.5-11.4 2.5Z" />
</svg>
